<?xml version="1.0" encoding="utf-8"?>
<!-- Generator: Adobe Illustrator 16.0.0, SVG Export Plug-In . SVG Version: 6.00 Build 0)  -->
<!DOCTYPE svg PUBLIC "-//W3C//DTD SVG 1.1//EN" "http://www.w3.org/Graphics/SVG/1.1/DTD/svg11.dtd">
<svg version="1.1" xmlns="http://www.w3.org/2000/svg" xmlns:xlink="http://www.w3.org/1999/xlink" x="0px" y="0px" width="841.89px" height="1190.55px" viewbox="0 0 841.89 1190.55" style="enable-background:new 0 0 841.89 1190.55;" xml:space="preserve">

<g>
  <polygon class="st230" fill="#0c1512" stroke="#0c1512" points="463,421.667 463,485.667 539,463" />
  <polyline class="st122" fill="#f3d0bb" stroke="#f3d0bb" points="539,463 463,421.667 539.666,407.667 539,463" />
  <polyline class="st30" fill="#e3c0a3" stroke="#e3c0a3" points="539,463 539.666,407.667 583.667,453 539,463" />
  <polygon class="st89" fill="#efccb9" stroke="#efccb9" points="583.667,453 539.666,407.667 581,345.667" />
  <polygon class="st110" fill="#f0d3c2" stroke="#f0d3c2" points="583.667,453 581,345.667 679,320.333" />
  <polyline class="st78" fill="#ebcab8" stroke="#ebcab8" points="679,320.333 581,345.667 586,243.5 679,320.333" />
  <polygon class="st50" fill="#e8c4b2" stroke="#e8c4b2" points="581,345.667 586,243.5 517.5,254.5" />
  <polyline class="st35" fill="#e4c3ad" stroke="#e4c3ad" points="517.5,254.5 586,243.5 429.5,216.5 517.5,254.5" />
  <polyline class="st173" fill="#cda280" stroke="#cda280" points="517.5,254.5 429.5,216.5 440,281.5 517.5,254.5" />
  <polygon class="st47" fill="#e7c5aa" stroke="#e7c5aa" points="581,345.667 517.5,254.5 466,313.5" />
  <polygon class="st252" fill="#ddaa81" stroke="#ddaa81" points="440,281.5 517.5,254.5 466,313.5" />
  <polyline class="st51" fill="#e8c8b4" stroke="#e8c8b4" points="466,313.5 440,281.5 425.5,342 466,313.5" />
  <polygon class="st46" fill="#e7c3a9" stroke="#e7c3a9" points="581,345.667 466,313.5 485,351" />
  <polygon class="st45" fill="#e7bba0" stroke="#e7bba0" points="425.5,342 466,313.5 485,351" />
  <polygon class="st24" fill="#e2bfa1" stroke="#e2bfa1" points="581,345.667 485,351 539.666,407.667" />
  <polygon class="st255" fill="#dfb28f" stroke="#dfb28f" points="539.666,407.666 485,351 425.5,342" />
  <polygon class="st248" fill="#dcb693" stroke="#dcb693" points="425.5,342 539.666,407.666 539.666,407.667 463,421.667" />
  <polygon class="st55" fill="#e9cdb9" stroke="#e9cdb9" points="583.667,453 679,320.333 704.334,402.333" />
  <polygon class="st127" fill="#f4d3c1" stroke="#f4d3c1" points="583.667,453 704.334,402.333 701,461.667" />
  <polygon class="st125" fill="#263423" stroke="#263423" points="463,485.667 539,463 537,515.667" />
  <polygon class="st184" fill="#364331" stroke="#364331" points="537,515.667 539,463 563.666,487" />
  <polygon class="st223" fill="#747563" stroke="#747563" points="537,515.667 563.666,487 619.5,505" />
  <polygon class="st112" fill="#233526" stroke="#233526" points="537,515.667 619.5,505 573,578.5" />
  <polyline class="st84" fill="#edcab2" stroke="#edcab2" points="573,578.5 619.5,505 654,599.5 573,578.5" />
  <polygon class="st124" fill="#f3d7c8" stroke="#f3d7c8" points="654,599.5 619.5,505 664,558" />
  <polygon class="st74" fill="#eacfc3" stroke="#eacfc3" points="654,599.5 664,558 693.5,574" />
  <polygon class="st133" fill="#f5dacc" stroke="#f5dacc" points="654,599.5 693.5,574 671.5,619" />
  <polygon class="st221" fill="#706e60" stroke="#706e60" points="573,578.5 537,515.667 530,584" />
  <polygon class="st215" fill="#3d4937" stroke="#3d4937" points="530,584 573,578.5 543,630" />
  <polyline class="st216" fill="#d8b396" stroke="#d8b396" points="619.5,505 583.667,453 563.666,487 619.5,505" />
  <polygon class="st46" fill="#e7c3a9" stroke="#e7c3a9" points="583.667,453 619.5,505 701,461.667" />
  <polygon class="st53" fill="#e8ccb8" stroke="#e8ccb8" points="619.5,505 701,461.667 664,558" />
  <polygon class="st132" fill="#f5d7c6" stroke="#f5d7c6" points="664,558 693.5,574 701,461.667" />
  <polygon class="st177" fill="#ceaa88" stroke="#ceaa88" points="539,463 563.666,487 583.667,453" />
  <polyline class="st114" fill="#f1d0be" stroke="#f1d0be" points="429.5,216.5 650,187.5 586,243.5 429.5,216.5" />
  <polygon class="st25" fill="#e2c1b1" stroke="#e2c1b1" points="586,243.5 650,187.5 650.5,241" />
  <polygon class="st15" fill="#af9580" stroke="#af9580" points="650.5,241 650,187.5 665.5,217.5" />
  <polygon class="st5" fill="#7d7b6f" stroke="#7d7b6f" points="665.5,217.5 650,187.5 709,203.5" />
  <polygon class="st40" fill="#4b5243" stroke="#4b5243" points="665.5,217.5 709,203.5 727.5,242.5" />
  <polygon class="st93" fill="#535545" stroke="#535545" points="727.5,242.5 665.5,217.5 650.5,241" />
  <polygon class="st156" fill="#997e70" stroke="#997e70" points="727.5,242.5 709,203.5 792,265" />
  <polygon class="st26" fill="#152022" stroke="#152022" points="792,265 727.5,242.5 729.5,282.5" />
  <polygon class="st11" fill="#111d17" stroke="#111d17" points="650.5,241 727.5,242.5 729.5,282.5" />
  <polygon class="st239" fill="#0d1c19" stroke="#0d1c19" points="729.5,282.5 792,265 792,349.5" />
  <polygon class="st228" fill="#0b1a17" stroke="#0b1a17" points="792,349.5 792,265 826,344" />
  <polygon class="st28" fill="#152421" stroke="#152421" points="792,349.5 826,344 815,419" />
  <polygon class="st232" fill="#0c1816" stroke="#0c1816" points="815,419 792,349.5 753,426" />
  <polyline class="st209" fill="#3c4338" stroke="#3c4338" points="753,426 792,349.5 730.5,353.5 753,426" />
  <polygon class="st60" fill="#b4a3a1" stroke="#b4a3a1" points="730.5,353.5 792,349.5 729.5,282.5" />
  <polygon class="st103" fill="#bfa7a2" stroke="#bfa7a2" points="730.5,353.5 729.5,282.5 679,320.333" />
  <polygon class="st94" fill="#555440" stroke="#555440" points="730.5,353.5 679,320.333 704.334,402.334" />
  <polygon class="st242" fill="#0e1712" stroke="#0e1712" points="704.334,402.334 730.5,353.5 753,426" />
  <polygon class="st36" fill="#4a4628" stroke="#4a4628" points="753,426 704.334,402.334 701,461.667" />
  <polygon class="st12" fill="#111f19" stroke="#111f19" points="679,320.333 729.5,282.5 650.5,241" />
  <polygon class="st42" fill="#e6c4b4" stroke="#e6c4b4" points="586,243.5 679,320.333 650.5,241" />
  <polygon class="st68" fill="#1b2a25" stroke="#1b2a25" points="753,426 815,419 774.5,444" />
  <polygon class="st56" fill="#b09f93" stroke="#b09f93" points="774.5,444 815,419 801,442" />
  <polyline class="st130" fill="#f4dacc" stroke="#f4dacc" points="650,187.5 499.75,116.5 429.5,216.5 650,187.5" />
  <polygon class="st120" fill="#f2d4c9" stroke="#f2d4c9" points="650,187.5 499.75,116.5 500,102.25" />
  <polyline class="st137" fill="#f7d4c1" stroke="#f7d4c1" points="499.75,116.5 413,167.75 429.5,216.5 499.75,116.5" />
  <polygon class="st123" fill="#f3d0be" stroke="#f3d0be" points="413,167.75 499.75,116.5 415,108" />
  <polygon class="st81" fill="#eccabc" stroke="#eccabc" points="415,108 499.75,116.5 500,102.25" />
  <polygon class="st128" fill="#f4d8cd" stroke="#f4d8cd" points="415,108 500,102.25 371.75,89.75" />
  <polygon class="st109" fill="#f0ccba" stroke="#f0ccba" points="371.75,89.75 415,108 413,167.75" />
  <polygon class="st126" fill="#f4d1be" stroke="#f4d1be" points="413,167.75 371.75,89.75 318.5,175.5" />
  <polyline class="st88" fill="#eecbb8" stroke="#eecbb8" points="318.5,175.5 371.75,89.75 280.25,161.5 318.5,175.5" />
  <polygon class="st108" fill="#f0c9b5" stroke="#f0c9b5" points="280.25,161.5 371.75,89.75 222.25,99.75" />
  <polygon class="st90" fill="#efcdbd" stroke="#efcdbd" points="371.75,89.75 222.25,99.75 323.5,72.25" />
  <polyline class="st256" fill="#dfb496" stroke="#dfb496" points="413,167.75 357.25,208.5 429.5,216.5 413,167.75" />
  <polygon class="st39" fill="#e5c2a6" stroke="#e5c2a6" points="357.25,208.5 429.5,216.5 440,281.5" />
  <polygon class="st23" fill="#e2b799" stroke="#e2b799" points="318.5,175.5 413,167.75 357.25,208.5" />
  <polygon class="st233" fill="#daae8f" stroke="#daae8f" points="357.25,208.5 318.5,175.5 299,210.666" />
  <polygon class="st41" fill="#e6c1a6" stroke="#e6c1a6" points="280.25,161.5 318.5,175.5 299,210.666" />
  <polyline class="st85" fill="#edcab9" stroke="#edcab9" points="222.25,99.75 228,193 280.25,161.5 222.25,99.75" />
  <polygon class="st254" fill="#deb99e" stroke="#deb99e" points="228,193 280.25,161.5 299,210.666" />
  <polygon class="st48" fill="#e7c6b6" stroke="#e7c6b6" points="228,193 222.25,99.75 166.5,116.5" />
  <polygon class="st48" fill="#e7c6b6" stroke="#e7c6b6" points="228,193 166.5,116.5 124.25,137.75" />
  <polygon class="st165" fill="#caa596" stroke="#caa596" points="228,193 124.25,137.75 179.75,217.75" />
  <polygon class="st57" fill="#b18877" stroke="#b18877" points="179.75,217.75 124.25,137.75 65.75,268.75" />
  <polygon class="st238" fill="#0d1a1d" stroke="#0d1a1d" points="65.75,268.75 124.25,137.75 33.667,195.667" />
  <polygon class="st76" fill="#1d2b2e" stroke="#1d2b2e" points="65.75,268.75 33.667,195.667 6.333,270" />
  <polygon class="st237" fill="#0d1719" stroke="#0d1719" points="65.75,268.75 6.333,270 18,409" />
  <polyline class="st129" fill="#f4d9cb" stroke="#f4d9cb" points="573,578.5 620.667,640 654,599.5" />
  <polygon class="st235" fill="#dab7a4" stroke="#dab7a4" points="620.667,640 573,578.5 543,630" />
  <polygon class="st133" fill="#f5dacc" stroke="#f5dacc" points="620.667,640 654,599.5 671.5,619" />
  <polygon class="st54" fill="#e8cebf" stroke="#e8cebf" points="620.667,640 671.5,619 619.667,680.334" />
  <polygon class="st29" fill="#e3bea1" stroke="#e3bea1" points="619.667,680.334 620.667,640 543,630" />
  <polygon class="st253" fill="#ddb79c" stroke="#ddb79c" points="619.667,680.334 543,630 570.333,700.334" />
  <polygon class="st7" fill="#ae9775" stroke="#ae9775" points="570.333,700.334 543,630 487,679" />
  <polyline class="st86" fill="#505137" stroke="#505137" points="487,679 570.333,700.334 539.667,745.333 487,679" />
  <polygon class="st259" fill="#434838" stroke="#434838" points="543,630 487,679 478.667,604" />
  <polygon class="st105" fill="#222d1f" stroke="#222d1f" points="478.667,604 543,630 530,584" />
  <polyline class="st117" fill="#243028" stroke="#243028" points="478.667,604 440,626.667 487,679 478.667,604" />
  <polygon class="st66" fill="#b5b3a4" stroke="#b5b3a4" points="440,626.667 478.667,604 438.667,590.333" />
  <polygon class="st96" fill="#57573b" stroke="#57573b" points="487,679 436.667,657.333 440,626.667" />
  <polygon class="st96" fill="#57573b" stroke="#57573b" points="487,679 464,725.333 539.667,745.333" />
  <polygon class="st240" fill="#a89c8c" stroke="#a89c8c" points="436.667,657.333 487,679 435,692" />
  <polygon class="st0" points="435,692 487,679 464,725.333"></polygon>
  <polyline class="st186" fill="#384033" stroke="#384033" points="464,725.333 498,796.334 539.667,745.333 464,725.333" />
  <polygon class="st198" fill="#060907" stroke="#060907" points="498,796.334 464,725.333 445.667,760.334" />
  <polygon class="st250" fill="#0f1812" stroke="#0f1812" points="445.667,760.334 464,725.333 435,692" />
  <polygon class="st37" fill="#17221a" stroke="#17221a" points="498,796.334 445.667,760.334 419.667,799.668" />
  <polygon class="st249" fill="#0f1711" stroke="#0f1711" points="435,692 445.667,760.334 419.667,799.668" />
  <polyline class="st155" fill="#2d3631" stroke="#2d3631" points="419.667,799.668 435,692 339.667,698 419.667,799.668" />
  <polygon class="st111" fill="#23301f" stroke="#23301f" points="498,796.334 419.667,799.668 440.333,840.001" />
  <polygon class="st63" fill="#1a271c" stroke="#1a271c" points="419.667,799.668 440.333,840.001 346,854.667" />
  <polygon class="st10" fill="#111c18" stroke="#111c18" points="346,854.667 419.667,799.668 339.667,698" />
  <polygon class="st75" fill="#1d2925" stroke="#1d2925" points="346,854.667 339.667,698 266,754.666" />
  <polygon class="st62" fill="#1a2622" stroke="#1a2622" points="346,854.667 266,754.666 270.667,838.666" />
  <polygon class="st104" fill="#222c2b" stroke="#222c2b" points="270.667,838.666 266,754.666 204,790.667" />
  <polyline class="st152" fill="#2c3736" stroke="#2c3736" points="204,790.667 266,754.666 190.667,754.333 204,790.667" />
  <polygon class="st246" fill="#0e1b1c" stroke="#0e1b1c" points="204,790.667 270.667,838.666 145,803.333" />
  <polygon class="st231" fill="#0c1517" stroke="#0c1517" points="145,803.333 204,790.667 190.667,754.333" />
  <polygon class="st18" fill="#122020" stroke="#122020" points="145,803.333 190.667,754.333 158,749.333" />
  <polygon class="st73" fill="#1c2f2b" stroke="#1c2f2b" points="145,803.333 158,749.333 109.667,803.333" />
  <polyline class="st44" fill="#192728" stroke="#192728" points="87.333,715.667 158,749.333 109.667,803.333 87.333,715.667" />
  <polygon class="st22" fill="#142223" stroke="#142223" points="109.667,803.333 87.333,715.667 53.333,724" />
  <polygon class="st77" fill="#1d2d2d" stroke="#1d2d2d" points="53.333,724 87.333,715.667 58,682.666" />
  <polygon class="st16" fill="#121d1f" stroke="#121d1f" points="87.333,715.667 58,682.666 95,673.333" />
  <polygon class="st71" fill="#1c2826" stroke="#1c2826" points="95,673.333 58,682.666 82,616.666" />
  <polygon class="st187" fill="#6e6861" stroke="#6e6861" points="82,616.666 58,682.666 62.667,602" />
  <polyline class="st144" fill="#938370" stroke="#938370" points="436.667,657.333 360.333,621 440,626.667 436.667,657.333" />
  <polyline class="st142" fill="#927964" stroke="#927964" points="360.333,621 440,626.667 412,602.667 360.333,621" />
  <polygon class="st158" fill="#616554" stroke="#616554" points="438.667,590.333 440,626.667 412,602.667" />
  <polygon class="st69" fill="#877f6f" stroke="#877f6f" points="412,602.667 438.667,590.333 407,568" />
  <polygon class="st115" fill="#242217" stroke="#242217" points="412,602.667 407,568 356.333,556" />
  <polygon class="st218" fill="#3e3c2d" stroke="#3e3c2d" points="356.333,556 407,568 408.667,521.333" />
  <polygon class="st150" fill="#2c1c0f" stroke="#2c1c0f" points="356.333,556 412,602.667 360.333,621" />
  <polygon class="st98" fill="#58493a" stroke="#58493a" points="435,692 436.667,657.333 360.333,621" />
  <polygon class="st79" fill="#1e281c" stroke="#1e281c" points="360.333,621 435,692 339.667,698" />
  <polygon class="st116" fill="#242c21" stroke="#242c21" points="339.667,698 360.333,621 332,621.333" />
  <polygon class="st70" fill="#1c2520" stroke="#1c2520" points="339.783,697.911 281.66,657.422 331.883,621.268" />
  <polygon class="st214" fill="#3d4137" stroke="#3d4137" points="281.66,657.422 339.783,697.911 339.667,698 266,754.666" />
  <polygon class="st211" fill="#091110" stroke="#091110" points="493,504.667 499,583 416.333,540.333" />
  <polygon class="st157" fill="#2f3032" stroke="#2f3032" points="416.333,540.333 493,504.667 447.667,504.667" />
  <polyline class="st181" fill="#333e36" stroke="#333e36" points="493,504.667 524.333,531 499,583 493,504.667" />
  <polygon class="st4" fill="#494541" stroke="#494541" points="499,583 524.333,531 523.667,557.333" />
  <polygon class="st174" fill="#303024" stroke="#303024" points="416.333,540.333 470,589 499,583" />
  <polygon class="st205" fill="#070e0e" stroke="#070e0e" points="470,589 416.333,540.333 433,578" />
  <polygon class="st91" fill="#efd3c7" stroke="#efd3c7" points="341.333,278.666 425.5,342 440,281.5" />
  <polygon class="st189" fill="#d0a68a" stroke="#d0a68a" points="341.333,278.666 357.25,208.5 440,281.5" />
  <polygon class="st138" fill="#5d4929" stroke="#5d4929" points="341.333,278.666 357.25,208.5 287.333,241.333" />
  <polygon class="st97" fill="#ba8f61" stroke="#ba8f61" points="287.333,241.333 299,210.666 357.25,208.5" />
  <polygon class="st241" fill="#795330" stroke="#795330" points="287.333,241.333 299,210.666 228,193" />
  <polygon class="st204" fill="#070e0c" stroke="#070e0c" points="408.667,521.333 463,485.667 463,421.667" />
  <polygon class="st172" fill="#ccab8b" stroke="#ccab8b" points="414.667,379.667 463,421.667 425.5,342" />
  <polygon class="st199" fill="#060a08" stroke="#060a08" points="463,421.667 414.667,379.667 396.667,426.333" />
  <polygon class="st190" fill="#030303" stroke="#030303" points="408.667,521.333 396.667,426.333 463,421.667" />
  <polygon class="st190" fill="#030303" stroke="#030303" points="408.667,521.333 396.667,426.333 363.333,465" />
  <polygon class="st206" fill="#d5a382" stroke="#d5a382" points="372.667,332.333 341.333,278.666 425.5,342" />
  <polyline class="st143" fill="#c29367" stroke="#c29367" points="414.667,379.667 372.667,332.333 425.5,342 414.667,379.667" />
  <polyline class="st61" fill="#1a2216" stroke="#1a2216" points="396.667,426.333 354.667,407 414.667,379.667" />
  <polygon class="st19" fill="#14160f" stroke="#14160f" points="354.667,407 363.333,465 396.667,426.333" />
  <polygon class="st140" fill="#917142" stroke="#917142" points="372.667,332.333 354.667,407 414.667,379.667" />
  <polyline class="st226" fill="#0b0e0d" stroke="#0b0e0d" points="363.333,465 329,477.666 408.667,521.333 363.333,465" />
  <polygon class="st202" fill="#070a09" stroke="#070a09" points="329,477.666 408.667,521.333 356.333,556" />
  <polygon class="st162" fill="#66472f" stroke="#66472f" points="325.333,562 356.333,556 360.333,621" />
  <polygon class="st193" fill="#040706" stroke="#040706" points="325.333,562 360.333,621 332,621.333" />
  <polyline class="st8" fill="#111812" stroke="#111812" points="356.333,556 319.333,506.666 329,477.666 356.333,556" />
  <polygon class="st219" fill="#3f2f1e" stroke="#3f2f1e" points="325.333,562 356.333,556 319.333,506.666" />
  <polygon class="st225" fill="#765549" stroke="#765549" points="319.333,506.666 325.333,562 255.333,521.666" />
  <polygon class="st188" fill="#020202" stroke="#020202" points="325.333,562 255.333,521.666 265,565.333" />
  <polygon class="st188" fill="#020202" stroke="#020202" points="265,565.333 325.333,562 332,621.333" />
  <polygon class="st147" fill="#2b352a" stroke="#2b352a" points="281.66,657.422 331.883,621.268 332,621.333 265,565.333" />
  <polyline class="st247" fill="#dcae92" stroke="#dcae92" points="372.667,332.333 317.333,363 341.333,278.666 372.667,332.333" />
  <polygon class="st234" fill="#dab49a" stroke="#dab49a" points="317.333,363 372.667,332.333 354.667,407" />
  <polygon class="st119" fill="#f2cdbe" stroke="#f2cdbe" points="317.333,363 354.667,407 301,449" />
  <polygon class="st121" fill="#251a0e" stroke="#251a0e" points="301,449 354.667,407 363.333,465" />
  <polygon class="st258" fill="#422714" stroke="#422714" points="301,449 363.333,465 329,477.666" />
  <polygon class="st59" fill="#b48e62" stroke="#b48e62" points="277.667,282.333 287.333,241.333 341.333,278.666" />
  <polygon class="st2" fill="#aa7f5c" stroke="#aa7f5c" points="277.667,282.333 287.333,241.333 228,193" />
  <polyline class="st166" fill="#caa68d" stroke="#caa68d" points="277.667,282.333 228,193 200.667,241.667 277.667,282.333" />
  <polygon class="st207" fill="#d5ac96" stroke="#d5ac96" points="179.75,217.75 228,193 200.667,241.667" />
  <polygon class="st195" fill="#d2a88a" stroke="#d2a88a" points="317.333,363 341.333,278.666 277.667,282.333" />
  <polygon class="st136" fill="#f7ccaf" stroke="#f7ccaf" points="317.333,363 277.667,282.333 259.667,369" />
  <polygon class="st175" fill="#cea180" stroke="#cea180" points="259.667,369 317.333,363 301,449" />
  <polygon class="st146" fill="#c59982" stroke="#c59982" points="259.667,369 263.333,432.333 301,449" />
  <polygon class="st163" fill="#9a796b" stroke="#9a796b" points="297.667,481.333 329,477.666 301,449" />
  <polygon class="st224" fill="#a47e67" stroke="#a47e67" points="297.667,481.333 329,477.666 319.333,506.666" />
  <polygon class="st217" fill="#d8b5a1" stroke="#d8b5a1" points="255.333,521.666 319.333,506.666 297.667,481.333" />
  <polygon class="st213" fill="#3d2e17" stroke="#3d2e17" points="234,298 200.667,241.667 277.667,282.333" />
  <polygon class="st192" fill="#d1b1a3" stroke="#d1b1a3" points="234,298 200.667,241.667 134.333,264.667" />
  <polygon class="st160" fill="#644e3d" stroke="#644e3d" points="134.333,264.667 200.667,241.667 179.75,217.75" />
  <polygon class="st176" fill="#cea895" stroke="#cea895" points="65.75,268.75 179.75,217.75 134.333,264.667" />
  <polygon class="st200" fill="#3a3423" stroke="#3a3423" points="234,298 277.667,282.333 259.667,369" />
  <polygon class="st34" fill="#e4c1ae" stroke="#e4c1ae" points="134.333,264.667 234,298 201.333,351.667" />
  <polygon class="st178" fill="#cead9c" stroke="#cead9c" points="201.333,351.667 134.333,264.667 147.667,317" />
  <polygon class="st49" fill="#e7cdbc" stroke="#e7cdbc" points="134.333,264.667 147.667,317 93.667,323.667" />
  <polygon class="st257" fill="#dfbdb4" stroke="#dfbdb4" points="93.667,323.667 134.333,264.667 65.75,268.75" />
  <polygon class="st191" fill="#d1afa5" stroke="#d1afa5" points="18,409 65.75,268.75 93.667,323.667" />
  <polygon class="st168" fill="#9c7c75" stroke="#9c7c75" points="93.667,323.667 58.659,363.146 131.25,367.25" />
  <polygon class="st151" fill="#2c2626" stroke="#2c2626" points="43.125,401 131.25,367.25 58.659,363.146" />
  <polygon class="st153" fill="#c7a296" stroke="#c7a296" points="18,409 43.125,401 58.659,363.146" />
  <polygon class="st101" fill="#bf9474" stroke="#bf9474" points="259.667,369 234,298 201.333,351.667" />
  <polygon class="st169" fill="#cba188" stroke="#cba188" points="259.667,369 201.333,351.667 207.667,433.667" />
  <polygon class="st194" fill="#d2a78e" stroke="#d2a78e" points="207.667,433.667 259.667,369 263.333,432.333" />
  <polygon class="st145" fill="#946e57" stroke="#946e57" points="263.333,432.333 301,449 248.667,460" />
  <polygon class="st13" fill="#af8262" stroke="#af8262" points="248.667,460 263.333,432.333 207.667,433.667" />
  <polygon class="st222" fill="#745948" stroke="#745948" points="248.667,460 301,449 297.667,481.333" />
  <polygon class="st141" fill="#c19c82" stroke="#c19c82" points="248.667,460 297.667,481.333 255.333,521.666" />
  <polygon class="st149" fill="#97644a" stroke="#97644a" points="255.333,521.666 248.667,460 208,466.334" />
  <polygon class="st100" fill="#8f6049" stroke="#8f6049" points="208,466.334 255.333,521.666 184.25,533.375" />
  <polygon class="st148" fill="#c69983" stroke="#c69983" points="207.667,433.667 248.667,460 208,466.334" />
  <polygon class="st135" fill="#5c412f" stroke="#5c412f" points="157.75,491.625 207.667,433.667 208,466.334" />
  <polygon class="st220" fill="#704d3b" stroke="#704d3b" points="184.25,533.375 208,466.334 157.75,491.625" />
  <polygon class="st14" fill="#af8a70" stroke="#af8a70" points="145.333,335.333 147.667,317 201.333,351.667" />
  <polygon class="st212" fill="#3d2c24" stroke="#3d2c24" points="145.333,335.333 147.667,317 93.667,323.667" />
  <polygon class="st159" fill="#62422a" stroke="#62422a" points="201.333,351.667 145.333,335.333 188,374" />
  <polyline class="st52" fill="#e8c8ba" stroke="#e8c8ba" points="188,374 145.333,335.333 131.25,367.25 188,374" />
  <polygon class="st171" fill="#cbaca3" stroke="#cbaca3" points="131.25,367.25 93.667,323.667 145.333,335.333" />
  <polygon class="st58" fill="#835435" stroke="#835435" points="188,374 201.333,351.667 207.667,433.667" />
  <polygon class="st92" fill="#523821" stroke="#523821" points="207.667,433.667 188,374 178,432.75" />
  <polygon class="st95" fill="#8a6249" stroke="#8a6249" points="178,432.75 207.667,433.667 157.75,491.625" />
  <polygon class="st170" fill="#cba389" stroke="#cba389" points="131.25,367.25 188,374 178,432.75" />
  <polygon class="st102" fill="#bf9b8d" stroke="#bf9b8d" points="178,432.75 131.25,367.25 121.75,427.125" />
  <polygon class="st164" fill="#9b776c" stroke="#9b776c" points="121.75,427.125 178,432.75 157.75,491.625" />
  <polygon class="st244" fill="#0e181a" stroke="#0e181a" points="43.125,401 131.25,367.25 121.75,427.125" />
  <polygon class="st20" fill="#141e23" stroke="#141e23" points="43.125,401 121.75,427.125 94.625,449.125" />
  <polygon class="st227" fill="#0b1214" stroke="#0b1214" points="94.625,449.125 43.125,401 41.25,447.875" />
  <polygon class="st161" fill="#655448" stroke="#655448" points="18,409 43.125,401 41.25,447.875" />
  <polygon class="st154" fill="#c7a396" stroke="#c7a396" points="18,409 41.25,447.875 32.75,488.625" />
  <polygon class="st139" fill="#c09e92" stroke="#c09e92" points="32.75,488.625 41.25,447.875 55.125,507.5" />
  <polygon class="st167" fill="#caa896" stroke="#caa896" points="32.75,488.625 55.125,507.5 70.25,554.875" />
  <polygon class="st1" fill="#475351" stroke="#475351" points="70.25,554.875 55.125,507.5 71.625,521.625" />
  <polygon class="st3" fill="#485251" stroke="#485251" points="70.25,554.875 71.625,521.625 95.375,537.5" />
  <polygon class="st65" fill="#1a2c2c" stroke="#1a2c2c" points="95.375,537.5 71.625,521.625 115.875,522.125" />
  <polygon class="st161" fill="#655448" stroke="#655448" points="70.25,554.875 95.375,537.5 115.125,584.625" />
  <polygon class="st201" fill="#3a3531" stroke="#3a3531" points="115.125,584.625 70.25,554.875 62.667,602" />
  <polygon class="st131" fill="#5a5957" stroke="#5a5957" points="115.125,584.625 62.667,602 82,616.666" />
  <polygon class="st31" fill="#162120" stroke="#162120" points="115.125,584.625 82,616.666 139.125,616.75" />
  <polygon class="st17" fill="#121e1c" stroke="#121e1c" points="139.125,616.75 82,616.666 95,673.333" />
  <polygon class="st222" fill="#745948" stroke="#745948" points="115.875,522.125 95.375,537.5 115.125,584.625" />
  <polygon class="st185" fill="#36443f" stroke="#36443f" points="281.66,657.422 249.667,604.333 240.875,654.625" />
  <polygon class="st118" fill="#243a2e" stroke="#243a2e" points="265,565.333 281.66,657.422 249.667,604.333" />
  <polygon class="st208" fill="#080b0a" stroke="#080b0a" points="240.875,654.625 249.667,604.333 220.167,646.5" />
  <polygon class="st32" fill="#162923" stroke="#162923" points="220.167,646.5 249.667,604.333 201.5,631.375" />
  <polygon class="st80" fill="#1e312d" stroke="#1e312d" points="201.5,631.375 249.667,604.333 185.875,567.625" />
  <polygon class="st82" fill="#1f2d2e" stroke="#1f2d2e" points="185.875,567.625 201.5,631.375 178.875,609.375" />
  <polygon class="st33" fill="#162925" stroke="#162925" points="178.875,609.375 201.5,631.375 190.5,648.75" />
  <polygon class="st196" fill="#050909" stroke="#050909" points="178.875,609.375 190.5,648.75 177.25,627.75" />
  <polygon class="st203" fill="#070c0c" stroke="#070c0c" points="177.25,627.75 190.5,648.75 176,654" />
  <polygon class="st229" fill="#0c1012" stroke="#0c1012" points="185.875,567.625 255.333,521.666 184.25,533.375" />
  <polygon class="st236" fill="#0d1514" stroke="#0d1514" points="185.875,567.625 255.333,521.666 265,565.333" />
  <polygon class="st113" fill="#23372c" stroke="#23372c" points="185.875,567.625 265,565.333 249.667,604.333" />
  <polygon class="st134" fill="#282525" stroke="#282525" points="240.875,654.625 220.167,646.5 236.833,676.833" />
  <polygon class="st197" fill="#060607" stroke="#060607" points="240.875,654.625 236.833,676.833 281.66,657.422" />
  <polygon class="st87" fill="#505958" stroke="#505958" points="236.833,676.833 281.66,657.422 266,754.666" />
  <polygon class="st179" fill="#3171a4" stroke="#3171a4" points="80.5,482.875 103.375,494.5 97.625,516.125" />
  <polygon class="st182" fill="#333e53" stroke="#333e53" points="80.5,482.875 91.5,455.25 103.375,494.5" />
  <polygon class="st64" fill="#1a292c" stroke="#1a292c" points="80.5,482.875 57.5,456.25 91.5,455.25" />
  <polygon class="st210" fill="#090f11" stroke="#090f11" points="115.875,522.125 121.75,427.125 94.625,449.125" />
  <polygon class="st201" fill="#3a3531" stroke="#3a3531" points="115.875,522.125 157.75,491.625 121.75,427.125" />
  <polygon class="st33" fill="#162925" stroke="#162925" points="187.722,703.981 87.333,715.667 158,749.333" />
  <polygon class="st38" fill="#172325" stroke="#172325" points="187.722,703.981 95,673.333 87.333,715.667" />
  <polygon class="st83" fill="#1f2e2b" stroke="#1f2e2b" points="187.722,703.981 176,654 204.75,678" />
  <polygon class="st83" fill="#1f2e2b" stroke="#1f2e2b" points="187.722,703.981 176,654 95,673.333" />
  <polygon class="st21" fill="#141f21" stroke="#141f21" points="95,673.333 147.625,636.625 176,654" />
  <polygon class="st203" fill="#070c0c" stroke="#070c0c" points="176,654 177.25,627.75 147.625,636.625" />
  <polygon class="st251" fill="#0f181a" stroke="#0f181a" points="147.625,636.625 139.125,616.75 95,673.333" />
  <polygon class="st43" fill="#192527" stroke="#192527" points="139.125,616.75 177.25,627.75 147.625,636.625" />
  <polygon class="st107" fill="#223434" stroke="#223434" points="177.25,627.75 178.875,609.375 139.125,616.75" />
  <polygon class="st27" fill="#152324" stroke="#152324" points="139.125,616.75 185.875,567.625 178.875,609.375" />
  <polygon class="st9" fill="#11191b" stroke="#11191b" points="185.875,567.625 115.125,584.625 139.125,616.75" />
  <polygon class="st72" fill="#1c2920" stroke="#1c2920" points="115.125,584.625 184.25,533.375 185.875,567.625" />
  <polygon class="st258" fill="#422714" stroke="#422714" points="115.125,584.625 115.875,522.125 184.25,533.375" />
  <polygon class="st244" fill="#0e181a" stroke="#0e181a" points="115.875,522.125 157.75,491.625 184.25,533.375" />
  <polygon class="st246" fill="#0e1b1c" stroke="#0e1b1c" points="204.75,678 190.667,754.333 158,749.333" />
  <polygon class="st260" fill="#434d4c" stroke="#434d4c" points="204.75,678 266,754.666 190.667,754.333" />
  <polygon class="st245" fill="#0e1a18" stroke="#0e1a18" points="204.75,678 190.5,648.75 176,654" />
  <polygon class="st243" fill="#0e1817" stroke="#0e1817" points="204.75,678 201.5,631.375 190.5,648.75" />
  <polygon class="st6" fill="#101d1d" stroke="#101d1d" points="204.75,678 220.167,646.5 201.5,631.375" />
  <polygon class="st180" fill="#324137" stroke="#324137" points="204.75,678 236.833,676.833 220.167,646.5" />
  <polygon class="st67" fill="#1b292a" stroke="#1b292a" points="236.833,676.833 266,754.666 204.75,678" />
  <polygon class="st106" fill="#223037" stroke="#223037" points="80.5,482.875 97.625,516.125 62.75,510.75" />
  <polygon class="st99" fill="#586063" stroke="#586063" points="80.5,482.875 62.75,510.75 49.5,484" />
  <polygon class="st183" fill="#33464d" stroke="#33464d" points="49.5,484 80.5,482.875 57.5,456.25" />
</g>
</svg>
